<svg width="1513" height="161" viewBox="0 0 1513 161" fill="none" xmlns="http://www.w3.org/2000/svg">
<g clip-path="url(#clip0_274_11)">
<path d="M50.4004 131.8H56.9004V136.9H50.4004V131.8ZM83.9004 119.8L90.4004 120.2V125.5C88.1004 125.5 86.3004 125.1 83.9004 125.1V119.8ZM67.1004 118.9L73.6004 119.1V124.4L67.1004 124V118.9ZM33.7004 118.5H40.2004V123.6H33.7004V118.5ZM116.6 109C117.3 109.3 121.6 109.5 122.9 109.8V115.9L116.6 115.1V109ZM40.3004 110.1V105C41.2004 105 41.1004 104.8 42.0004 104.8H46.8004V109.9H42.0004C41.1004 109.9 41.2004 110.1 40.3004 110.1ZM83.9004 115.6L72.7004 115.2C71.3004 115.1 69.2004 115 67.7004 114.8C66.9004 114.7 65.9004 114.8 65.0004 114.8C64.0004 114.8 63.7004 114.6 62.5004 114.6V89.4C68.9004 89.4 82.5004 89.5 88.4004 90.9C91.2004 91.6 93.3004 92.3 95.5004 94.1C95.9004 94.4 96.0004 94.4 96.3004 94.8C99.2004 97.5 99.6004 101.5 99.6004 105.4C99.7004 114.6 91.7004 115.6 83.9004 115.6ZM40.3004 98.1H46.8004V103.2H40.3004V98.1ZM47.0004 77.8H53.5004V83.1H47.0004V77.8ZM47.7004 57.6H54.2004V62.7H47.7004V57.6ZM116.6 59.7V53.6C117.6 53.6 122.4 53.3 122.9 53V59.3C120.8 59.3 118.8 59.7 116.6 59.7ZM62.6004 71.9V46.2H65.5004L82.4004 45.4C83.9004 45.2 88.9004 45.6 90.4004 46.1C95.9004 47.9 96.3004 51.5 96.0004 57.8C95.6004 66.3 87.4004 70.5 79.6004 70.9C78.7004 71 78.0004 71 76.9004 71.1C73.1004 71.4 69.3004 71.7 65.5004 71.7C64.2004 71.7 63.5004 71.8 62.6004 71.9ZM38.4004 51H44.9004V56.1H38.4004V51ZM116.6 43.9V37.8C118.8 37.8 120.6 37 122.9 37V43.1C121.4 43.3 117.9 43.9 116.6 43.9ZM42.0004 42.4C42.0004 35.5 41.1004 37.2 46.6004 37.1C47.5004 37.1 47.5004 36.9 48.3004 36.9V42.2H44.9004C43.6004 42.2 43.2004 42.4 42.0004 42.4ZM50.8004 42H50.2004V36.9L56.7004 36.5V41.8C54.5004 41.8 53.0004 42 50.8004 42ZM75.1004 15.2V28.7L71.5004 28.9C69.6004 29.1 61.7004 29.2 60.6004 29.4V24C62.5004 24 65.3004 24 66.9004 23.6V15.6L44.5004 16.9C43.6004 16.9 41.6004 16.5 41.6004 17.5V30.4H25.5004C25.1004 30.4 24.9004 30.5 24.9004 31V36.9C24.9004 37.3 25.0004 37.5 25.5004 37.5H31.6004V42.6H24.9004V48.9C24.9004 49.3 25.0004 49.5 25.5004 49.5H33.3004V70.6C33.3004 71 33.4004 71.2 33.9004 71.2H39.8004V76.3H33.9004C33.5004 76.3 33.3004 76.4 33.3004 76.9V84.1C33.3004 84.5 33.4004 84.7 33.9004 84.7H39.8004V89.8H33.9004C33.5004 89.8 33.3004 89.9 33.3004 90.4V111.5H25.5004C25.1004 111.5 24.9004 111.6 24.9004 112.1V124.8C24.9004 125.9 27.6004 125.2 29.8004 125.2H31.3004V130C31.3004 130.4 31.4004 130.6 31.9004 130.6H41.6004V143.5C41.6004 144.3 43.1004 144.1 45.4004 144.3C47.1004 144.4 52.0004 144.4 54.2004 144.7C54.9004 144.8 55.7004 144.7 56.4004 144.7C57.2004 144.8 57.6004 144.9 58.7004 144.9V139.8C61.1004 139.8 62.8004 140.2 65.2004 140.2V131.6L70.1004 132C71.7004 132 73.4004 132.4 75.0004 132.4V146.5C77.2004 146.5 84.0004 147.5 86.8004 147.9L98.2004 149.6V135.1C104.6 135.1 109.9 136.5 117.1 133.6C122.9 131.3 127.2 127.6 129.1 121.7C131.2 115.5 131.5 108 130.1 101.5C129.6 99 128.7 96.5 127.5 94.4L126.4 92.6C125.9 92 125.2 91.9 124 91.9C121.3 91.9 119.1 91.7 116.4 91.7V84.3C116.4 84.3 112.3 82.7 110.2 82.2C108.6 81.8 105 80.9 103.1 80.9V76.1C105.1 75.6 110.6 73.5 112.5 72.6C115.5 71.1 114.5 71.5 116.5 70.1C126.5 63.2 129 50.5 125.8 39C124.9 35.7 125.2 37.9 124.3 35.4C123.4 32.7 119 29.3 115.9 28.1C111.6 26.4 109.1 26.2 104.5 26.2C102.7 26.2 99.6004 26.3 98.2004 26.6V25.1C96.1004 25.1 93.8004 25.9 91.7004 25.9V20C92.6004 20 93.9004 19.7 94.9004 19.6C95.8004 19.5 97.2004 19.3 98.2004 19.1V11.7C97.6004 11.7 80.3004 14.4 76.1004 14.7C75.6004 14.7 75.1004 14.5 75.1004 15.2ZM552.5 103.1C552.5 103.5 552.6 103.7 553.1 103.7H564.5C565.4 103.7 565.1 102.2 565.1 101.2V79.1C565.7 79.5 565.9 79.9 566.3 80.5L583.8 102.9C584.1 103.2 584.1 103.6 584.7 103.6H594.8C595.2 103.6 595.4 103.5 595.4 103V58.2H582.8V81.8L566.4 61C565.9 60.4 564.5 58.2 563.9 58.2H552.5V103.1ZM187.7 93.4H179.1V85.2H189.4C192.3 85.2 194.5 86.5 194.5 89.4C194.6 92.7 191.1 93.4 187.7 93.4ZM186.4 76.3H179.2V68.5C182.6 68.5 188.6 68 191 69.3C191.6 69.6 191.8 69.7 192.1 70.3C192.7 71.3 192.7 71.7 192.7 72.8C192.7 75.6 189.4 76.3 186.4 76.3ZM166.6 58.8V103.1C166.6 103.5 166.7 103.7 167.2 103.7H187.7C193 103.7 197.9 103.1 201.2 101.2C204.7 99.2 207.3 96.1 207.3 90.7C207.3 87.6 206.2 85.1 204.6 83.5C202.9 81.9 202.4 81.5 200.2 80.5C199.5 80.2 198.9 80.2 198.5 79.7C201.5 79 205.2 74.8 205.2 70.6C205.2 66.2 204.4 63.5 200.6 60.9C198.2 59.3 194.7 58.2 190.7 58.2H167.1C166.7 58.2 166.6 58.3 166.6 58.8ZM261.5 80.8C261.5 74.4 266.1 68.8 272 68.8C274.7 68.8 275.6 68.7 278.2 70C281.7 71.8 284.3 75.9 284.3 79.8C284.3 83.8 283.8 86.8 281 89.6C274.4 96.5 261.5 92.4 261.5 80.8ZM248.6 79.7C248.6 84.2 248.9 87.1 250.8 91.2C251.4 92.5 252.2 93.7 253 94.7C256.9 100.3 264.6 104.4 271.8 104.4C277.8 104.4 282.6 103.4 287.3 100.1C292.7 96.3 296.8 89.9 297.3 83.3C297.3 82.8 297.3 82.4 297.4 81.8C298.1 77 295.8 71.1 293.1 67.1C289.4 61.6 281.6 57.2 273.2 57.2C268.3 57.2 263.2 58.7 259.5 61L256.2 63.6C255.1 64.7 254.3 65.4 253.4 66.7C250.7 70.3 248.6 74.9 248.6 79.7ZM430.8 58.8V103.1C430.8 103.5 430.9 103.7 431.4 103.7H443.6V86.3H459.6V103C459.6 103.4 459.7 103.6 460.2 103.6H471.8C472.2 103.6 472.4 103.5 472.4 103V58.8C472.4 58.4 472.3 58.2 471.8 58.2H459.6V75.1H443.6V58.2H431.4C430.9 58.2 430.8 58.3 430.8 58.8ZM501.7 73C501.9 74 502.5 75.1 502.8 76C503.3 77.2 506.4 84.9 506.4 85.5H496.7C496.8 84.7 499.8 77.5 500.4 76C500.6 75.4 500.7 75 501 74.5L501.7 73ZM477 103.7H489.2C490 103.7 490.8 100.9 491.3 99.7C491.6 99 491.9 98.3 492.2 97.5C492.7 96.3 492.7 95.5 493.4 95.5H509.9C510.5 95.5 510.4 95.7 510.6 96.2L512.8 101.6C513.1 102.4 513.3 103.1 513.8 103.7H527C526.9 102.6 525.2 99.1 524.7 97.8L521.1 89.2C520.7 88.2 520.3 87.3 519.9 86.3C519 84.3 518.3 82.5 517.5 80.6L512.6 69C511.8 67.1 511 65.2 510.2 63.2L508.4 58.9C508.2 58.3 508.1 57.7 507.5 57.7H496.3C495.5 57.7 495.2 59.1 494.8 60.1L486 80.7C483.3 87.1 479.8 94.9 477.4 101C476.8 102.6 476 103.7 477 103.7ZM302.2 80.3C302.2 87.1 304.2 93 308.8 97.7C312.7 101.5 318.6 104.5 324.4 104.5C330 104.5 333.7 104.1 338.2 101.4C339.9 100.4 345.4 95.8 345.5 94.1C345 94 344.8 93.7 344.3 93.4C343.9 93.1 343.6 92.9 343.2 92.6L336.2 87.7C333.4 89.6 332.9 93 325.4 93C319.7 93 315.3 87.5 315.3 81.8C315.3 77.9 315.9 75.2 318.3 72.4C322.3 67.8 329.7 68.1 333.9 72.3L335.8 74.3L339.3 71.6C339.8 71.2 340 71 340.5 70.7C341.3 70 342.1 69.6 342.9 68.9C343.4 68.5 344.8 67.3 345.3 67.1C344.8 66.2 344.4 65.8 343.7 65.1C342.2 63.4 341.7 63 339.9 61.6C337.8 60 335 58.9 332.4 58.2C327.2 56.9 321 57.2 316.3 59.3C314.8 59.9 313.7 60.5 312.5 61.4C311.9 61.8 311.4 62.2 310.8 62.6C309.7 63.5 307.2 66 306.4 67.2C304.1 70.4 302.2 75.5 302.2 80.3ZM404.3 104.4C409.6 104.4 413.5 104.1 418.2 101.2C420 100.1 419.9 100 421.2 98.9C423 97.4 424.1 96.2 425.5 94.1C424.3 93.3 416.7 87.6 416 87.4C415.4 87.8 415.1 88.4 414.2 89.3C413.6 89.9 413 90.4 412.2 90.9C405.1 95.7 395 91.3 395 80.8C395 77.5 396.3 74.2 397.9 72.5C401.8 68.4 406.6 67.8 411.6 70.5C412.1 70.8 412.3 71 412.7 71.3C413.1 71.6 413.4 71.8 413.8 72.2L415.6 74.2C417.7 72.8 420.5 70.4 422.7 68.8C423.6 68.2 424.2 67.6 425.1 67C424.8 65.9 422.7 64 421.9 63.1C415.6 56.8 404.6 55.9 396.4 59.2C395 59.8 393.8 60.4 392.5 61.2C388.8 63.6 386.3 66.6 384.3 70.5C383.6 71.8 383.1 73.2 382.7 74.8C381.8 78.3 381.7 81.4 382.3 85.1C382.6 86.7 383.1 88.4 383.6 89.7C384.1 91.1 384.8 92.4 385.6 93.6C387.7 97.1 391.1 100.1 394.8 101.9C397.2 103.1 401.1 104.4 404.3 104.4Z" fill="#24CC85"/>
<path d="M350.9 103.1C350.9 103.5 351 103.7 351.5 103.7H363.1C364 103.7 363.7 100.7 363.7 98.9C363.7 97.1 363.7 95.2 363.7 93.4C363.7 91.4 363.6 91.8 365.5 89.8L368.1 86.9L379.5 103.6H387.7C387.5 103 387.4 102.9 386.9 102.5C383.1 99.7 379.3 93.3 378.2 88.6C377.6 86.4 377.1 84 377.1 81.3C377.1 78.4 377.4 76.7 378 74L379.6 69.2C379.9 68.6 380 68.1 380.3 67.6C381.4 65.6 382.2 64.3 383.7 62.4L385.8 60.1C386.3 59.7 387.8 58.4 388.1 58H379C378.8 58.7 378.6 58.6 378.2 59.1C377.8 59.6 377.6 59.8 377.2 60.2L373.4 64.7C372.7 65.5 372.1 66.1 371.5 67L364.8 74.9C364.4 75.3 364.1 75.7 363.8 76V59.8C363.8 58.9 364.1 57.9 363.2 57.9H351V103.1H350.9ZM212.8 103.1C212.8 103.5 212.9 103.7 213.4 103.7H246.9C247.3 103.7 247.5 103.6 247.5 103.1V92.4H225.6V58.2H212.9V103.1H212.8ZM531.6 103.1C531.6 103.5 531.7 103.7 532.2 103.7H544.4V58.2H531.7V103.1H531.6ZM108 1.49999V8.29999C109.2 7.99999 110.4 7.79999 111.6 7.49999C115.7 6.49999 114.8 8.49999 114.8 -0.100006C114.2 -6.10203e-06 108.5 1.29999 108 1.49999ZM108 159C108 159.7 108.7 159.7 109.3 159.8C110.8 160.1 113.7 160.9 114.8 160.9C114.8 153.3 115.3 154.1 113.4 153.7C111.6 153.4 109.7 152.7 107.9 152.7V159H108ZM99.8 157.9L106.5 159.2V153.7C106.5 152.7 106.7 152.5 106.1 152.2L99.9 151L99.8 157.9ZM83.3 154.4C83.3 155.2 85 155.2 86.4 155.4C87.6 155.6 89 155.9 90.1 155.9C90.1 148 91 149.5 87 148.9C85.7 148.7 84.6 148.5 83.3 148.5V154.4ZM99.8 3.19999V9.89999C101.6 9.69999 104.8 8.79999 106.5 8.79999V1.79999C105.4 2.19999 100.9 2.69999 99.8 3.19999ZM91.7 4.59999V11.3C92.2 11.3 97.7 10.4 97.9 10.3C98.6 9.89999 98.3 8.99999 98.3 6.99999C98.3 5.79999 98.3 4.59999 98.3 3.39999C97.3 3.59999 96.2 3.79999 95.1 3.99999C94.1 4.19999 92.8 4.59999 91.7 4.59999ZM66.8 7.99999V14.3C69.2 14.3 71.3 13.7 73.6 13.7V7.19999L66.8 7.99999ZM58.4 9.09999C58.4 15.8 58 14.9 59.5 14.8L65.2 14.4V8.19999C63.8 8.19999 62.9 8.29999 61.6 8.39999C59.5 8.49999 58.4 8.39999 58.4 9.09999ZM75.1 153.9L81.8 154.9V148.2C80.9 148.2 75.6 147.6 75.1 147.4V153.9ZM50 9.09999V15.4L55.1 15.2C55.8 15.2 56 15 56.8 15V8.69999C55.9 8.69999 56 8.79999 55.3 8.89999C54.7 8.89999 54 8.89999 53.4 8.89999C52.3 8.99999 51.4 9.09999 50 9.09999ZM50 151.8C52.3 151.8 54.6 152.2 56.8 152.2V145.9C54.6 145.9 52.2 145.5 50 145.5V151.8ZM33.3 9.69999V12.9C33.3 16.4 32 15.8 40.1 15.8V9.49999C37.1 9.49999 36.2 9.39999 33.3 9.69999ZM75.1 6.99999V13.5C77.2 13.3 79.6 12.7 81.8 12.7V6.09999C81.4 6.29999 75.9 6.99999 75.1 6.99999ZM33.3 145.7V150.8C33.3 151.2 33.4 151.4 33.9 151.4H40.2V145.1H33.9C33.4 145.1 33.3 145.2 33.3 145.7ZM58.4 151.8C58.4 152.5 59 152.4 59.7 152.4C61.1 152.4 63 152.8 65.2 152.8V146.5C62.8 146.5 60.9 146.1 58.4 146.1V151.8ZM24.9 10.1V15.2C24.9 15.6 25 15.8 25.5 15.8H31.8V9.69999C31.2 9.69999 31.1 9.49999 30.5 9.49999H25.6C25 9.49999 24.9 9.59999 24.9 10.1ZM108 138.1C108 145 107.1 143.5 111.5 144.3C115.7 145.1 114.8 146.2 114.8 139.2C114.8 138.5 114 138.5 113.3 138.4L109.4 137.7C108.6 137.6 108 137.3 108 138.1ZM108 17.3V23.4C109.1 23.3 110.4 23 111.6 22.8C112.1 22.7 112.9 22.6 113.4 22.5C115.4 22.2 114.9 22.5 114.9 16.2C113.5 16.2 109.4 17 108 17.3ZM116.2 15.8V21.9C117.5 21.9 118.5 21.6 119.7 21.4C123.7 20.6 122.9 22.2 122.9 14.5L116.2 15.8ZM41.7 151.4L48.5 151.6V145.5C47.5 145.5 47.5 145.3 46.4 145.3H41.6V151.4H41.7ZM116.2 8.59999C116.2 14.7 115.8 14.5 117.5 14.1L122.8 13V6.69999C121.8 6.69999 118.9 7.49999 117.6 7.79999C117 7.89999 116.2 7.89999 116.2 8.59999ZM116.2 144.7C116.2 145.5 117.7 145.4 119.3 145.8C120.3 146 121.9 146.4 122.8 146.4V140.1C121.6 139.8 117.2 139 116.1 139V144.7H116.2ZM99.8 149.7C100.7 149.8 102.2 150.1 103.1 150.3C104.1 150.5 105.5 150.9 106.5 150.9V144.8C104.9 144.8 102 143.8 99.8 143.8V149.7ZM99.8 142.3L106.5 143.4V137.3C104.7 137.2 101.4 136.3 99.8 136.3V142.3ZM99.8 11.2V17.1C102.2 17.1 105 16.2 106.5 16.1V9.99999C104.8 10.2 101.5 11.2 99.8 11.2ZM99.8 18.6V24.5L106.5 23.5V17.4L99.8 18.6ZM24.9 78.2V82.8C24.9 83.2 25 83.4 25.5 83.4H31.8V77.9C31.2 77.9 31.1 77.7 30.5 77.7H25.6C25 77.6 24.9 77.7 24.9 78.2ZM66.8 145.3C67.7 145.5 69.4 145.6 70.4 145.7C74.4 145.9 73.6 147.7 73.6 140.4C72 140.4 69.6 139.8 66.8 139.8V145.3ZM0 69.4C1.1 69.4 1.3 69.6 2.5 69.6H6.9V64.5C6.9 64.1 6.8 63.9 6.3 63.9H0L0 69.4ZM0 91.5V97H6.3C6.7 97 6.9 96.9 6.9 96.4C6.9 90.9 7.3 91.2 5.6 91.2L0 91.5ZM66.8 138.5C69 138.5 71.5 139.1 73.6 139.1V133.4C71.2 133.4 69.3 133 66.8 133V138.5ZM0 34.6C0 35.6 1.4 35 3.2 35.2C4.3 35.3 5.5 35.3 6.9 35.3V29.8C4.6 29.8 2.3 29.4 0.1 29.4V34.6H0ZM0.6 98.3H0V103.8H6.3C6.7 103.8 6.9 103.7 6.9 103.2V98.1C4.5 98.1 2.9 98.3 0.6 98.3ZM0 55.7L6.8 55.9V50.4C5.5 50.4 4.9 50.2 3.6 50.2H0L0 55.7ZM16.5 51.2C16.5 57.1 15.7 56.2 19.7 56.1C21.2 56.1 22.1 56.3 23.3 56.3V50.8C22.7 50.8 22.6 50.6 22 50.6H17.1C16.7 50.6 16.5 50.7 16.5 51.2ZM0 125.9V131.4L6.8 131V125.5C4.5 125.5 2.2 125.7 0 125.9ZM0 43.7V48.8C2.5 48.8 4.3 49 6.8 49V43.5L1.3 43.3C0.7 43.3 0 42.9 0 43.7ZM0 132.7V138.2C2.4 138.2 4.6 137.8 6.8 137.8V132.3L1.7 132.5C1 132.6 0.9 132.7 0 132.7ZM16.5 64.7V69.6H20.1C21.5 69.6 22 69.8 23.3 69.8V64.1H17C16.7 64.1 16.5 64.2 16.5 64.7ZM16.5 139.2C16.5 146 15.1 144 23.3 144V138.5L17.8 138.7C17.2 138.6 16.5 138.5 16.5 139.2ZM8.4 78.2V83.3H15V77.6H8.9C8.5 77.6 8.4 77.7 8.4 78.2ZM16.5 30.8V35.7C17.7 35.7 18.1 35.9 19.4 35.9H23.4V30.4C21.9 30.4 19.8 30.5 18.4 30.3C17.6 30.2 16.5 30 16.5 30.8ZM16.5 44.3V48.9C16.5 49.3 16.6 49.5 17.1 49.5H23.4V44H18.5C17.5 43.9 16.5 43.3 16.5 44.3ZM24.9 24.3C24.9 27.1 24.5 29.2 25.5 29.2H31.8V23.7H25.5C25 23.8 24.9 23.9 24.9 24.3ZM24.9 85C24.9 87.8 24.5 89.9 25.5 89.9H31.8V84.4H25.5C25 84.4 24.9 84.6 24.9 85ZM24.9 98.5C24.9 101.3 24.5 103.4 25.5 103.4H31.8V97.9H25.5C25 97.9 24.9 98.1 24.9 98.5ZM33.3 24.3C33.3 27.1 32.9 29.2 33.9 29.2H40.2V23.7H33.9C33.4 23.8 33.3 23.9 33.3 24.3ZM16.5 91.9C16.5 94.7 16.1 96.8 17.1 96.8H23.4V91.3H17.1C16.7 91.3 16.5 91.4 16.5 91.9ZM16.5 105.4C16.5 108.2 16.1 110.3 17.1 110.3H23.4V104.8H17.1C16.7 104.8 16.5 104.9 16.5 105.4ZM24.9 58C24.9 60.8 24.5 62.9 25.5 62.9H31.8V57.4H25.5C25 57.4 24.9 57.6 24.9 58ZM24.9 71.5C24.9 74.3 24.5 76.4 25.5 76.4H31.8V70.9H25.5C25 70.9 24.9 71.1 24.9 71.5ZM33.3 132.2C33.3 135 32.9 137.1 33.9 137.1H40.2V131.6H33.9C33.4 131.6 33.3 131.7 33.3 132.2ZM16.5 71.5C16.5 74.3 16.1 76.4 17.1 76.4H23.4V70.9H17.1C16.7 70.9 16.5 71.1 16.5 71.5ZM16.5 125.7C16.5 131 16.1 130.7 17.8 130.7L23.3 130.5V125L18.9 125.1C18 125.2 16.5 124.8 16.5 125.7ZM16.5 132.4C16.5 138.8 16.3 137.3 17.6 137.3H23.3V131.8H17C16.7 131.8 16.5 131.9 16.5 132.4ZM24.9 104.8C24.9 111.9 24.5 110.1 26.8 110.1H31.7V104.6H27.3C26.2 104.6 26 104.8 24.9 104.8ZM24.9 55.7C24.9 56.1 25 56.3 25.5 56.3H31.8V50.8H25V55.7H24.9ZM16.5 85V90H23.3V84.5H17C16.7 84.4 16.5 84.6 16.5 85ZM24.9 132.2V137.1H31.7V131.6H25.4C25 131.6 24.9 131.7 24.9 132.2ZM16.5 118.9V123.8H23.3V118.3H17C16.7 118.3 16.5 118.4 16.5 118.9ZM35 17.1H33.3V22C33.3 22.7 33.7 22.6 34.6 22.6C36.7 22.6 38 22.4 40.1 22.4V16.9C38.2 16.9 37 17.1 35 17.1ZM33.3 143.8C34.3 143.8 34.3 144 35.4 144H40.2V138.5H33.4V143.8H33.3ZM8.4 37.3C8.4 42.5 8 42.4 9.5 42.5L15 42.7V37.2C13.2 36.8 11.1 37.2 9.5 36.9C9.1 36.8 8.4 36.4 8.4 37.3ZM8.4 118.7V124.2L15 124V118.5C13.8 118.5 9.3 118.3 8.4 118.7ZM8.4 62.8H11C12.6 62.8 13.4 63 15 63V57.3H8.4V62.8ZM8.4 105V110.5H12.2C13.5 110.5 13.8 110.3 15.1 110.3V104.8C12.6 104.8 10.8 105 8.4 105ZM8.4 111.8V117.3C10.8 117.3 12.6 117.1 15.1 117.1V111.6H11.7C10.2 111.6 9.7 111.8 8.4 111.8ZM8.4 35.6C10.9 35.6 12.6 35.8 15.1 35.8V30.3C13.4 30.3 12.5 30.1 10.7 30.1H8.4V35.6ZM8.4 132.2V137.7H9.5C11.6 137.7 12.9 137.5 15 137.5V132C12.6 132 10.8 132.2 8.4 132.2ZM8.4 103.7H15V98.2H8.4V103.7ZM8.4 96.8H15V91.3H8.4V96.8ZM8.4 69.6H15V64.1H8.4V69.6Z" fill="#24CC85"/>
</g>
<path d="M625.35 88.791V80.416H644.311V88.791H625.35ZM678.369 104V64.068H664.902V54.085H703.896V64.068H690.362V104H678.369ZM710.639 104V50.467H722.565V63.331L721.962 70.098C724.709 67.552 728.461 64.939 733.62 64.939C741.928 64.939 745.479 70.902 745.479 80.416V104H733.553V81.89C733.553 76.597 732.146 75.123 729.131 75.123C726.451 75.123 724.843 76.329 722.565 78.54V104H710.639ZM772.025 104.938C761.037 104.938 752.595 97.568 752.595 84.905C752.595 72.577 761.506 64.939 770.685 64.939C781.673 64.939 787.033 72.912 787.033 83.297C787.033 85.441 786.765 87.518 786.497 88.456H764.119C765.191 93.682 768.809 95.826 773.633 95.826C776.38 95.826 778.926 95.022 781.673 93.414L785.626 100.583C781.673 103.397 776.447 104.938 772.025 104.938ZM763.918 80.617H776.916C776.916 76.865 775.241 74.051 770.886 74.051C767.603 74.051 764.722 76.128 763.918 80.617ZM810.9 104V54.085H842.725V64.068H822.893V74.989H839.911V84.972H822.893V104H810.9ZM860.024 104.938C851.649 104.938 848.098 98.975 848.098 89.461V65.877H860.024V87.987C860.024 93.213 861.431 94.754 864.446 94.754C867.126 94.754 868.801 93.682 870.811 90.868V65.877H882.737V104H873.022L872.151 98.774H871.883C868.734 102.526 865.183 104.938 860.024 104.938ZM907.346 104.938C897.765 104.938 893.879 98.841 893.879 89.863V75.19H888.72V66.346L894.616 65.877L895.956 55.76H905.805V65.877H914.783V75.19H905.805V89.729C905.805 93.95 907.815 95.625 910.629 95.625C911.835 95.625 913.175 95.223 914.113 94.888L915.989 103.531C913.979 104.134 911.232 104.938 907.346 104.938ZM933.698 104.938C925.323 104.938 921.772 98.975 921.772 89.461V65.877H933.698V87.987C933.698 93.213 935.105 94.754 938.12 94.754C940.8 94.754 942.475 93.682 944.485 90.868V65.877H956.411V104H946.696L945.825 98.774H945.557C942.408 102.526 938.857 104.938 933.698 104.938ZM966.012 104V65.877H975.727L976.598 72.51H976.799C979.613 67.418 983.834 64.939 987.653 64.939C989.931 64.939 991.204 65.274 992.276 65.743L990.333 75.994C988.926 75.659 987.787 75.391 986.112 75.391C983.298 75.391 979.881 77.2 977.938 82.225V104H966.012ZM1013.13 104.938C1002.15 104.938 993.703 97.568 993.703 84.905C993.703 72.577 1002.61 64.939 1011.79 64.939C1022.78 64.939 1028.14 72.912 1028.14 83.297C1028.14 85.441 1027.87 87.518 1027.61 88.456H1005.23C1006.3 93.682 1009.92 95.826 1014.74 95.826C1017.49 95.826 1020.03 95.022 1022.78 93.414L1026.73 100.583C1022.78 103.397 1017.56 104.938 1013.13 104.938ZM1005.03 80.617H1018.02C1018.02 76.865 1016.35 74.051 1011.99 74.051C1008.71 74.051 1005.83 76.128 1005.03 80.617ZM1067.62 104.938C1057.9 104.938 1048.93 97.568 1048.93 84.905C1048.93 72.309 1057.9 64.939 1067.62 64.939C1077.27 64.939 1086.25 72.309 1086.25 84.905C1086.25 97.568 1077.27 104.938 1067.62 104.938ZM1067.62 95.29C1072.04 95.29 1074.05 91.27 1074.05 84.905C1074.05 78.607 1072.04 74.587 1067.62 74.587C1063.13 74.587 1061.12 78.607 1061.12 84.905C1061.12 91.27 1063.13 95.29 1067.62 95.29ZM1094.89 104V64.403C1094.89 56.363 1098.71 49.529 1109.29 49.529C1112.64 49.529 1115.39 50.199 1117.07 50.802L1114.92 59.646C1113.72 59.11 1112.31 58.842 1111.04 58.842C1108.42 58.842 1106.82 60.249 1106.82 64.068V104H1094.89ZM1089.8 75.19V66.346L1095.63 65.877H1113.58V75.19H1089.8ZM1149.89 104.938C1140.31 104.938 1136.43 98.841 1136.43 89.863V75.19H1131.27V66.346L1137.16 65.877L1138.5 55.76H1148.35V65.877H1157.33V75.19H1148.35V89.729C1148.35 93.95 1150.36 95.625 1153.18 95.625C1154.38 95.625 1155.72 95.223 1156.66 94.888L1158.54 103.531C1156.53 104.134 1153.78 104.938 1149.89 104.938ZM1164.72 104V50.467H1176.65V63.331L1176.04 70.098C1178.79 67.552 1182.54 64.939 1187.7 64.939C1196.01 64.939 1199.56 70.902 1199.56 80.416V104H1187.64V81.89C1187.64 76.597 1186.23 75.123 1183.21 75.123C1180.53 75.123 1178.93 76.329 1176.65 78.54V104H1164.72ZM1226.11 104.938C1215.12 104.938 1206.68 97.568 1206.68 84.905C1206.68 72.577 1215.59 64.939 1224.77 64.939C1235.76 64.939 1241.12 72.912 1241.12 83.297C1241.12 85.441 1240.85 87.518 1240.58 88.456H1218.2C1219.27 93.682 1222.89 95.826 1227.72 95.826C1230.46 95.826 1233.01 95.022 1235.76 93.414L1239.71 100.583C1235.76 103.397 1230.53 104.938 1226.11 104.938ZM1218 80.617H1231C1231 76.865 1229.32 74.051 1224.97 74.051C1221.69 74.051 1218.8 76.128 1218 80.617ZM1269.27 104L1260.22 54.085H1272.42L1275.57 76.865C1276.24 82.091 1276.91 87.317 1277.58 92.677H1277.85C1278.78 87.317 1279.79 82.024 1280.79 76.865L1285.89 54.085H1296L1301.16 76.865C1302.17 81.957 1303.04 87.317 1304.04 92.677H1304.38C1304.98 87.317 1305.65 82.024 1306.25 76.865L1309.54 54.085H1320.86L1312.22 104H1297.14L1292.65 82.292C1291.85 78.473 1291.18 74.453 1290.71 70.701H1290.44C1289.77 74.453 1289.17 78.473 1288.43 82.292L1284.08 104H1269.27ZM1343.21 104.938C1333.49 104.938 1324.52 97.568 1324.52 84.905C1324.52 72.309 1333.49 64.939 1343.21 64.939C1352.86 64.939 1361.83 72.309 1361.83 84.905C1361.83 97.568 1352.86 104.938 1343.21 104.938ZM1343.21 95.29C1347.63 95.29 1349.64 91.27 1349.64 84.905C1349.64 78.607 1347.63 74.587 1343.21 74.587C1338.72 74.587 1336.71 78.607 1336.71 84.905C1336.71 91.27 1338.72 95.29 1343.21 95.29ZM1369.32 104V65.877H1379.04L1379.91 72.51H1380.11C1382.92 67.418 1387.14 64.939 1390.96 64.939C1393.24 64.939 1394.51 65.274 1395.58 65.743L1393.64 75.994C1392.23 75.659 1391.1 75.391 1389.42 75.391C1386.61 75.391 1383.19 77.2 1381.25 82.225V104H1369.32ZM1411.25 104.938C1403.08 104.938 1400.4 99.578 1400.4 91.605V50.467H1412.33V92.007C1412.33 94.553 1413.46 95.29 1414.4 95.29C1414.8 95.29 1415.07 95.29 1415.74 95.156L1417.15 103.933C1415.88 104.469 1413.93 104.938 1411.25 104.938ZM1436.31 104.938C1426.8 104.938 1420.7 97.367 1420.7 84.905C1420.7 72.443 1428.54 64.939 1436.45 64.939C1440.67 64.939 1443.15 66.48 1445.63 68.892L1445.22 63.197V50.467H1457.15V104H1447.44L1446.56 100.315H1446.3C1443.62 102.995 1439.93 104.938 1436.31 104.938ZM1439.46 95.156C1441.74 95.156 1443.55 94.419 1445.22 91.94V76.932C1443.42 75.257 1441.27 74.654 1439.26 74.654C1435.98 74.654 1432.96 77.736 1432.96 84.771C1432.96 92.074 1435.38 95.156 1439.46 95.156Z" fill="#2C3E50"/>
<defs>
<clipPath id="clip0_274_11">
<rect width="595.3" height="160.9" fill="white"/>
</clipPath>
</defs>
</svg>
